<?xml version="1.0" encoding="utf-8"?>
<!-- Generator: Adobe Illustrator 27.8.0, SVG Export Plug-In . SVG Version: 6.00 Build 0)  -->
<svg version="1.1" id="Layer_1" xmlns="http://www.w3.org/2000/svg" xmlns:xlink="http://www.w3.org/1999/xlink" x="0px" y="0px"
	 viewBox="0 0 512 512" style="enable-background:new 0 0 512 512;" xml:space="preserve">
<style type="text/css">
	.st0{fill:#F9B21D;}
	.st1{fill:#226DB4;}
	.st2{fill:#089949;}
	.st3{fill:#E42527;}
</style>
<g>
	<g>
		<g>
			<path class="st0" d="M180.2,512c-31.9,0-62.8-10-89.2-29.1c-32.9-23.9-54.6-59.1-60.9-99.3l-14.1-89.5
				c-4.4-27.6,14.4-53.3,42-57.7s53.3,14.4,57.7,42l14.2,89.6c2.1,13.5,9.5,25.4,20.5,33.5c11,8,24.7,11.3,38.2,9.2l89.6-14.2
				c27.6-4.4,53.3,14.4,57.7,42c4.4,27.6-14.4,53.3-42,57.7l-89.6,14.2C196.4,511.4,188.3,512,180.2,512z"/>
		</g>
		<g>
			<path class="st1" d="M286,496.6c-24.4,0-45.9-17.7-49.8-42.6c-4.4-27.6,14.4-53.3,42-57.7l89.6-14.2c13.5-2.1,25.4-9.5,33.5-20.5
				c8-11,11.3-24.7,9.2-38.2l-14.2-89.6c-4.4-27.6,14.4-53.3,42-57.7c27.6-4.4,53.3,14.4,57.7,42l14.2,89.6
				c6.4,40.2-3.3,80.3-27.2,113.3s-59.1,54.6-99.3,60.9L294,495.9C291.4,496.4,288.7,496.6,286,496.6z"/>
		</g>
		<g>
			<path class="st2" d="M446,276.3c-24.4,0-45.9-17.7-49.8-42.6l-14.2-89.5c-4.5-27.9-30.8-47.1-58.7-42.6l-89.6,14.2
				c-27.6,4.4-53.3-14.4-57.7-42c-4.4-27.6,14.4-53.3,42-57.7l89.6-14.2c82.9-13.2,161,43.6,174.2,126.5l14.2,89.6
				c4.4,27.6-14.4,53.3-42,57.7C451.3,276.2,448.6,276.3,446,276.3z"/>
		</g>
		<g>
			<path class="st3" d="M65.8,336.6c-24.4,0-45.9-17.7-49.8-42.5L1.9,204.4c-13.2-82.9,43.6-161,126.5-174.2l89.5-14.2
				c27.6-4.4,53.3,14.4,57.7,42c4.4,27.6-14.4,53.3-42,57.7l-89.5,14.2c-27.9,4.5-47.1,30.8-42.6,58.7l14.2,89.6
				c4.4,27.6-14.4,53.3-42,57.7C71.1,336.3,68.4,336.6,65.8,336.6z"/>
		</g>
		<g>
			<path class="st0" d="M80,426.2c-24.4,0-45.9-17.7-49.8-42.6l-14.2-89.5c-4.4-27.6,14.4-53.3,42-57.7s53.3,14.4,57.7,42l14.2,89.6
				c4.4,27.6-14.4,53.3-42,57.7C85.3,426,82.7,426.2,80,426.2z"/>
		</g>
	</g>
</g>
</svg>
